<?xml version="1.0" encoding="UTF-8"?>
<svg id="Calque_2" data-name="Calque 2" xmlns="http://www.w3.org/2000/svg" viewBox="0 0 500 555.40525">
  <defs>
    <style>
      .cls-1 {
        fill: #fff;
      }
    </style>
  </defs>
  <g id="Calque_1-2" data-name="Calque 1">
    <g>
      <path class="cls-1" d="m111.52704,398.88804l-16.7832,19.9577c-4.88057-8.96925-8.44738-19.02916-10.49892-29.98159-5.37006-28.65701-2.8686-56.30631,11.0856-82.34671,11.34117-21.16344,28.25038-36.291,50.3388-45.6526,2.22795-.94304,4.46305-1.88239,6.68019-2.8506l3.12771-1.32093L56.94116,87.96151h25.65529l35.85911,62.86774s37.05768,64.26419,55.42812,96.4881c4.1787,7.33163,8.3034,14.05856,12.33096,22.0165-6.6334,1.31008-12.9824,2.96936-18.43524,4.57821-29.89517,8.83608-48.76238,28.765-57.18094,58.50187-6.27703,22.15678-6.21948,44.472.92859,66.47413Z"/>
      <path class="cls-1" d="m281.57945,431.97742v22.61758s-.13677,16.5133-.13677,24.51069c-2.68145,0-4.53142.0109-6.51459.00721-30.72661-.03234-61.47844.5651-92.17627-.45711-29.80875-.9933-54.54988-14.20254-70.39725-35.83745l15.30032-18.19772c10.84443,20.78554,30.18308,33.32529,55.11494,34.48783,23.37697,1.08697,46.8296.59384,70.24976.74506,1.45046.01072,7.5332-.03242,7.5332-.03242v-64.28585l21.02666,36.44219Z"/>
      <path class="cls-1" d="m297.92712,108.11358c-23.37697-1.09058-46.82951-.59388-70.24971-.74862-1.4505-.00721-7.53316.03238-7.53316.03238v64.28581l-21.02671-36.44219v-22.61758s.13677-16.50961.13677-24.51069c2.6778,0,4.52786-.00721,6.51099-.00721,30.73021.03238,61.482-.5615,92.17623.46071,32.42908,1.07977,58.85459,16.61761,74.36009,41.72223l-16.11015,19.15508c-9.97705-24.85985-30.70864-40.04502-58.26435-41.32992Z"/>
      <path class="cls-1" d="m424.62716,479.25732h-25.65887l-35.85551-62.86409s-37.05764-64.26784-55.42812-96.49174c-4.17874-7.33167-8.30344-14.055-12.33456-22.0165,6.63696-1.30652,12.98604-2.96576,18.43884-4.57821,29.89521-8.83612,48.76234-28.76505,57.18094-58.49827,5.52481-19.50784,6.14386-39.138,1.33174-58.57023l17.81978-21.18865c3.21409,7.19846,5.64357,14.99435,7.20206,23.305,5.37002,28.65705,2.86857,56.30991-11.08564,82.34676-11.34117,21.16704-28.25034,36.291-50.33885,45.6526-2.2315.9466-4.46301,1.88599-6.68014,2.8506l-3.12775,1.32449,98.53608,168.72824Z"/>
      <polygon class="cls-1" points="0 549.44758 335.60429 150.39216 337.76582 156.34982 2.16153 555.40525 0 549.44758"/>
      <polygon class="cls-1" points="162.23418 399.05543 497.83847 0 500 5.95766 164.39571 405.01309 162.23418 399.05543"/>
    </g>
  </g>
</svg>